#!OML:ASF E:\Steps\Project 1\Capture day 1\Session 2\Subject.ASF
:FULLY-SPECIFIED
:DEGREES
21
root -1.29674 17.9763 20.758 -154.805 0.536536 177.787
lowerback -26.1959 -2.65733 -7.71746
upperback -1.39144 -0.598504 -0.291676
thorax 13.2263 -0.503486 3.94394
lowerneck -0.766495 -2.97937 -1.47114
upperneck 10.9412 -3.80765 3.13161
head 3.79227 -1.63347 1.16891
rclavicle -3.926e-015 -1.51076e-014
rhumerus -38.7375 -16.7852 -77.6246
rradius 34.0276
rwrist -3.77166
rhand -7.98073 -57.589
rfingers 7.12502
rthumb 17.9274 -86.7828
lclavicle -3.926e-015 -1.51076e-014
lhumerus -30.8076 -1.34024 83.3926
lradius 30.9756
lwrist -0.611915
lhand -26.955 -10.588
lfingers 7.12502
lthumb -0.37664 19.3914
rfemur -24.1156 6.68397 19.2895
rtibia 9.98494
rfoot -19.1186 -3.79103
rtoes -22.4171
lfemur -23.1995 -3.71797 -24.5811
ltibia 7.83482
lfoot -5.74902 -6.91243
ltoes -22.3269
22
root -1.30254 17.9719 20.7501 -154.72 0.593007 177.794
lowerback -26.3104 -2.68684 -7.67578
upperback -1.40751 -0.634165 -0.289931
thorax 13.2738 -0.516048 3.90908
lowerneck -0.890462 -3.00776 -1.33485
upperneck 10.5462 -3.86391 2.94981
head 3.66896 -1.68199 1.07954
rclavicle 4.96962e-017 -8.74653e-015
rhumerus -38.5777 -16.7631 -77.675
rradius 33.9898
rwrist -3.65246
rhand -7.94925 -57.5217
rfingers 7.12502
rthumb 17.9577 -86.7127
lclavicle 4.96962e-017 -8.74653e-015
lhumerus -30.8158 -1.06648 83.3852
lradius 30.5499
lwrist -0.668305
lhand -26.9398 -10.5475
lfingers 7.12502
lthumb -0.361905 19.4319
rfemur -24.2234 6.5406 19.2839
rtibia 10.0258
rfoot -19.152 -3.64017
rtoes -22.7751
lfemur -23.2512 -3.78935 -24.5881
ltibia 7.82613
lfoot -5.93699 -6.68959
ltoes -23.1457
23
root -1.30698 17.9686 20.7416 -154.621 0.707038 177.799
lowerback -26.4873 -2.68721 -7.66859
upperback -1.434 -0.607357 -0.315376
thorax 13.3355 -0.499632 3.88632
lowerneck -0.897046 -2.95636 -1.21614
upperneck 10.2508 -3.80806 2.87108
head 3.5595 -1.66474 1.03388
rclavicle 7.45443e-015 5.96354e-015
rhumerus -38.4568 -16.9212 -77.6788
rradius 33.88
rwrist -3.56384
rhand -7.86193 -57.3646
rfingers 7.12502
rthumb 18.0417 -86.5478
lclavicle 7.45443e-015 5.96354e-015
lhumerus -30.8449 -0.981198 83.3617
lradius 30.1046
lwrist -0.631503
lhand -26.9185 -10.5967
lfingers 7.12502
lthumb -0.341386 19.3828
rfemur -24.3594 6.4526 19.2746
rtibia 10.0712
rfoot -19.1118 -3.56011
rtoes -23.4433
lfemur -23.275 -3.77906 -24.6263
ltibia 7.72809
lfoot -5.96435 -6.53193
ltoes -23.7348
24
root -1.31103 17.9688 20.73 -154.715 0.822933 177.775
lowerback -26.5619 -2.66609 -7.69348
upperback -1.39669 -0.556008 -0.374549
thorax 13.4137 -0.479872 3.85102
lowerneck -0.797393 -2.86087 -1.1522
upperneck 9.97473 -3.69312 2.9047
head 3.44052 -1.61331 1.03837
rclavicle 1.3418e-015 -2.62396e-014
rhumerus -38.3559 -16.9774 -77.7824
rradius 33.8151
rwrist -3.47923
rhand -7.65696 -57.5679
rfingers 7.12502
rthumb 18.2389 -86.7328
lclavicle 1.3418e-015 -2.62396e-014
lhumerus -30.9096 -1.05822 83.3199
lradius 29.6151
lwrist -0.668849
lhand -26.9116 -10.5618
lfingers 7.12502
lthumb -0.334707 19.4177
rfemur -24.2175 6.4315 19.2298
rtibia 10.0387
rfoot -19.1153 -3.44783
rtoes -23.0926
lfemur -23.0271 -3.81249 -24.6932
ltibia 7.55653
lfoot -5.91215 -6.39043
ltoes -23.3865
25
root -1.31533 17.9688 20.7215 -154.791 0.883006 177.765
lowerback -26.5365 -2.68396 -7.68324
upperback -1.40965 -0.579742 -0.40107
thorax 13.3872 -0.486615 3.80571
lowerneck -0.734218 -2.7787 -1.13196
upperneck 9.83378 -3.58932 2.93343
head 3.37723 -1.56461 1.04817
rclavicle 6.65929e-015 -1.66979e-014
rhumerus -38.2985 -16.8844 -77.8955
rradius 33.822
rwrist -3.47392
rhand -7.40553 -58.4188
rfingers 7.12502
rthumb 18.4808 -87.561
lclavicle 6.65929e-015 -1.66979e-014
lhumerus -31.0771 -0.997804 83.2803
lradius 29.0695
lwrist -1.14133
lhand -26.8972 -10.319
lfingers 7.12502
lthumb -0.320806 19.6605
rfemur -24.1199 6.32175 19.2246
rtibia 10.0542
rfoot -19.1596 -3.20948
rtoes -22.6627
lfemur -22.8623 -3.84674 -24.7263
ltibia 7.51311
lfoot -5.88451 -6.37438
ltoes -22.3466
26
root -1.31705 17.9683 20.7174 -154.787 0.883355 177.717
lowerback -26.4632 -2.75883 -7.75569
upperback -1.48491 -0.658107 -0.390918
thorax 13.2697 -0.516337 3.83103
lowerneck -0.695961 -2.72377 -1.161
upperneck 9.6789 -3.52138 2.94595
head 3.31569 -1.53725 1.0596
rclavicle 4.96962e-017 1.27222e-014
rhumerus -38.3445 -16.8426 -77.8984
rradius 33.8289
rwrist -3.54839
rhand -7.43504 -58.8704
rfingers 7.12502
rthumb 18.4524 -88.0152
lclavicle 4.96962e-017 1.27222e-014
lhumerus -31.295 -0.719314 83.2422
lradius 28.548
lwrist -1.71972
lhand -26.8947 -10.1428
lfingers 7.12502
lthumb -0.318409 19.8367
rfemur -24.1383 6.23443 19.1846
rtibia 10.1145
rfoot -19.1953 -3.13185
rtoes -22.8762
lfemur -22.8582 -3.76546 -24.8098
ltibia 7.57639
lfoot -5.81734 -6.59593
ltoes -20.8569
27
root -1.31879 17.9678 20.7118 -154.799 0.897983 177.679
lowerback -26.7167 -2.80307 -7.81552
upperback -1.36062 -0.67522 -0.401393
thorax 13.5579 -0.545104 3.84442
lowerneck -0.772299 -2.71013 -1.1291
upperneck 9.34044 -3.51924 2.89326
head 3.21096 -1.55092 1.03515
rclavicle 2.88238e-015 -3.4191e-014
rhumerus -38.1653 -16.9872 -77.9278
rradius 33.8238
rwrist -3.51674
rhand -7.44333 -58.6158
rfingers 7.12502
rthumb 18.4444 -87.7613
lclavicle 2.88238e-015 -3.4191e-014
lhumerus -31.1675 -0.431468 83.1764
lradius 28.0286
lwrist -2.01621
lhand -21.8547 -12.1817
lfingers 7.12502
lthumb 4.54911 17.7494
rfemur -24.1453 6.22359 19.1389
rtibia 10.1926
rfoot -19.2538 -3.16006
rtoes -23.0816
lfemur -22.8129 -3.68766 -24.8822
ltibia 7.53997
lfoot -5.78658 -6.72339
ltoes -20.6833
28
root -1.3214 17.9675 20.7064 -154.775 0.912839 177.724
lowerback -27.5877 -2.77049 -7.69591
upperback -0.510443 -0.58896 -0.387711
thorax 14.2135 -0.540454 3.61402
lowerneck -0.949074 -2.68704 -1.04359
upperneck 8.58587 -3.53295 2.96661
head 2.9858 -1.58045 1.04044
rclavicle -1.44119e-014 0
rhumerus -37.3866 -17.3599 -78.21
rradius 33.7429
rwrist -3.50441
rhand -7.27918 -58.1423
rfingers 7.12502
rthumb 18.6023 -87.2728
lclavicle -1.44119e-014 0
lhumerus -30.3876 -0.294026 83.0231
lradius 27.4095
lwrist -2.20601
lhand -22.0223 -12.2493
lfingers 7.12502
lthumb 4.38724 17.6852
rfemur -24.1794 6.20242 19.1885
rtibia 10.2681
rfoot -19.3154 -3.10869
rtoes -22.9738
lfemur -22.816 -3.6272 -24.8447
ltibia 7.50247
lfoot -5.77466 -6.75942
ltoes -20.5172
29
root -1.32488 17.9663 20.6984 -154.76 0.94795 177.752
lowerback -27.6889 -2.76945 -7.68123
upperback -0.502745 -0.580692 -0.384463
thorax 14.2694 -0.537094 3.61164
lowerneck -0.942786 -2.61837 -1.05879
upperneck 8.35091 -3.44873 2.97529
head 2.90332 -1.54675 1.04813
rclavicle 7.25564e-015 9.54166e-015
rhumerus -37.3747 -17.371 -78.2221
rradius 33.7108
rwrist -3.61141
rhand -7.07687 -57.752
rfingers 7.12502
rthumb 18.7969 -86.8638
lclavicle 7.25564e-015 9.54166e-015
lhumerus -30.3454 0.00998245 82.9283
lradius 26.7818
lwrist -2.58246
lhand -21.7467 -12.3357
lfingers 7.12502
lthumb 4.65337 17.5932
rfemur -24.1738 6.21892 19.1876
rtibia 10.316
rfoot -19.2778 -3.16252
rtoes -23.5633
lfemur -22.7896 -3.63116 -24.8225
ltibia 7.46822
lfoot -5.73397 -6.71782
ltoes -19.6493
30
root -1.32731 17.9671 20.6901 -154.82 0.986537 177.713
lowerback -27.5384 -2.81627 -7.73804
upperback -0.593035 -0.632092 -0.394435
thorax 14.0998 -0.551419 3.61431
lowerneck -1.0517 -2.70967 -0.854292
upperneck 8.55184 -3.55903 2.72098
head 2.98278 -1.59839 0.925737
rclavicle 4.07509e-015 2.38542e-014
rhumerus -37.516 -17.3722 -78.1932
rradius 33.6214
rwrist -3.58819
rhand -7.03434 -57.7182
rfingers 7.12502
rthumb 18.8378 -86.826
lclavicle 4.07509e-015 2.38542e-014
lhumerus -30.4973 0.413254 82.7807
lradius 26.1371
lwrist -2.97522
lhand -21.5565 -12.6119
lfingers 7.12502
lthumb 4.83704 17.3129
rfemur -24.0782 6.27279 19.1112
rtibia 10.3069
rfoot -19.1829 -3.28148
rtoes -24.3187
lfemur -22.6588 -3.64273 -24.8851
ltibia 7.41169
lfoot -5.78272 -6.60524
ltoes -20.3705
